<svg xmlns="http://www.w3.org/2000/svg" x="0px" y="0px"
width="20" height="20"
viewBox="0 0 171 171"
style=" fill:#000000;"><g transform=""><g fill="none" fill-rule="nonzero" stroke="none" stroke-width="1" stroke-linecap="butt" stroke-linejoin="miter" stroke-miterlimit="10" stroke-dasharray="" stroke-dashoffset="0" font-family="none" font-weight="none" font-size="none" text-anchor="none" style="mix-blend-mode: normal"><path d="M0,171.98863v-171.98863h171.98863v171.98863z" fill="none"></path><path d="" fill="none"></path><path d="M85.99432,171.49432c-47.22035,0 -85.5,-38.27965 -85.5,-85.5v0c0,-47.22035 38.27965,-85.5 85.5,-85.5v0c47.22035,0 85.5,38.27965 85.5,85.5v0c0,47.22035 -38.27965,85.5 -85.5,85.5z" fill="none"></path><path d="M85.99432,168.07432c-45.33153,0 -82.08,-36.74847 -82.08,-82.08v0c0,-45.33153 36.74847,-82.08 82.08,-82.08h0c45.33153,0 82.08,36.74847 82.08,82.08v0c0,45.33153 -36.74847,82.08 -82.08,82.08z" fill="none"></path><path d="M0.49432,171.49432v-171h171v171z" fill="none"></path><path d="M3.91432,168.07432v-164.16h164.16v164.16z" fill="none"></path><path d="M85.99432,171.49432c-47.22035,0 -85.5,-38.27965 -85.5,-85.5v0c0,-47.22035 38.27965,-85.5 85.5,-85.5v0c47.22035,0 85.5,38.27965 85.5,85.5v0c0,47.22035 -38.27965,85.5 -85.5,85.5z" fill="none"></path><path d="M85.99432,168.07432c-45.33153,0 -82.08,-36.74847 -82.08,-82.08v0c0,-45.33153 36.74847,-82.08 82.08,-82.08h0c45.33153,0 82.08,36.74847 82.08,82.08v0c0,45.33153 -36.74847,82.08 -82.08,82.08z" fill="none"></path><g fill="#000000"><path d="M26.39813,21.48188l-4.91625,4.91625l59.10187,59.10188l-59.10187,59.10188l4.91625,4.91625l59.10188,-59.10187l59.10188,59.10187l4.91625,-4.91625l-59.10187,-59.10188l59.10187,-59.10187l-4.91625,-4.91625l-59.10188,59.10187z"></path></g></g></g></svg>